<svg xmlns="http://www.w3.org/2000/svg" viewBox="0 0 124 118" width="124" height="118">
  <ellipse cx="62" cy="104" rx="40" ry="8" fill="#eadfca"/>
  <g transform="rotate(-4 60 60)">
    <path d="M60 14 C84 12 106 28 103 51 C114 68 99 95 71 99 C49 111 18 99 16 72 C4 57 15 26 39 20 C46 16 52 15 60 14 Z"
      fill="#fffdf6" stroke="#f2e7cf" stroke-width="2"/>
  </g><circle cx="60" cy="50" r="18" fill="#ffc02e" stroke="#f2a700" stroke-width="2"/><circle cx="53.88" cy="42.44" r="3.6" fill="#ffe08a" opacity="0.8"/><circle cx="52.8" cy="49.64" r="2.43" fill="#3a2a18"/><circle cx="67.2" cy="49.64" r="2.43" fill="#3a2a18"/><path d="M48.8 43.64 q4 -2 8 0" stroke="#3a2a18" stroke-width="2" fill="none" stroke-linecap="round"/><path d="M63.2 43.64 q4 -2 8 0" stroke="#3a2a18" stroke-width="2" fill="none" stroke-linecap="round"/><path d="M60 51.08 q-2 4.68 2 5.3999999999999995" stroke="#f2a700" stroke-width="1.6" fill="none" stroke-linecap="round"/><path d="M54 58.64 q6 6 12 0" stroke="#3a2a18" stroke-width="2" fill="none" stroke-linecap="round"/><path d="M48 70 L59 76 L48 82 Z M72 70 L61 76 L72 82 Z" fill="#c0392b"/><circle cx="60" cy="76" r="2.5" fill="#c0392b"/><g transform="translate(98 48) rotate(-30)"><rect x="-2" y="-26" width="4" height="44" rx="2" fill="#efe6d2" stroke="#7a4322" stroke-width="1"/><circle cx="0" cy="18" r="4" fill="#7a4322"/></g><g transform="translate(20 40)"><ellipse cx="0" cy="6" rx="4.4" ry="3.4" fill="#3a2a18" transform="rotate(-20)"/><rect x="3.4" y="-12" width="2" height="18" fill="#3a2a18"/><path d="M5.4 -12 q8 2 6 10 q0 -6 -6 -6 Z" fill="#3a2a18"/></g></svg>