<svg xmlns="http://www.w3.org/2000/svg" viewBox="0 0 124 118" width="124" height="118">
  <ellipse cx="62" cy="104" rx="40" ry="8" fill="#eadfca"/>
  <g transform="rotate(-1 60 60)">
    <path d="M60 14 C84 12 106 28 103 51 C114 68 99 95 71 99 C49 111 18 99 16 72 C4 57 15 26 39 20 C46 16 52 15 60 14 Z"
      fill="#fffdf6" stroke="#f2e7cf" stroke-width="2"/>
  </g><path d="M33 100 Q60 84 87 100 Q84 110 72 112 L48 112 Q36 110 33 100 Z" fill="#2c2a26"/>
  <path d="M60 86 L53 104 L60 110 L67 104 Z" fill="#f3eede"/><path d="M44 46 C38 15 53 7 61 9 C76 7 82 21 76 46 C73 29 65 24 60 24 C55 24 47 29 44 46 Z" fill="#473d34"/><circle cx="60" cy="53" r="17" fill="#ffc02e" stroke="#f2a700" stroke-width="2"/><circle cx="54.22" cy="45.86" r="3.4000000000000004" fill="#ffe08a" opacity="0.8"/><circle cx="53.2" cy="52.66" r="2.295" fill="#3a2a18"/><circle cx="66.8" cy="52.66" r="2.295" fill="#3a2a18"/><path d="M48.2 45.66 L57.2 49.66" stroke="#3a2a18" stroke-width="2.6" stroke-linecap="round"/><path d="M71.8 45.66 L62.8 49.66" stroke="#3a2a18" stroke-width="2.6" stroke-linecap="round"/><path d="M60 54.02 q-2 4.42 2 5.1" stroke="#f2a700" stroke-width="1.6" fill="none" stroke-linecap="round"/><path d="M55 61.84 h10" stroke="#3a2a18" stroke-width="2" stroke-linecap="round"/><circle cx="46" cy="50" r="8.5" fill="#fff" fill-opacity="0.18" stroke="#3a2a18" stroke-width="2.4"/><circle cx="74" cy="50" r="8.5" fill="#fff" fill-opacity="0.18" stroke="#3a2a18" stroke-width="2.4"/><path d="M54.5 50 h11" stroke="#3a2a18" stroke-width="2.4"/><path d="M37.5 50 l-6 -2 M82.5 50 l6 -2" stroke="#3a2a18" stroke-width="2.4" stroke-linecap="round"/></svg>