<svg xmlns="http://www.w3.org/2000/svg" viewBox="0 0 124 118" width="124" height="118">
  <ellipse cx="62" cy="104" rx="40" ry="8" fill="#eadfca"/>
  <g transform="rotate(0 60 60)">
    <path d="M60 14 C84 12 106 28 103 51 C114 68 99 95 71 99 C49 111 18 99 16 72 C4 57 15 26 39 20 C46 16 52 15 60 14 Z"
      fill="#fffdf6" stroke="#f2e7cf" stroke-width="2"/>
  </g><circle cx="60" cy="44" r="15" fill="#ffc02e" stroke="#f2a700" stroke-width="2"/><circle cx="54.9" cy="37.7" r="3" fill="#ffe08a" opacity="0.8"/><circle cx="51.3" cy="48.2" r="2.4" fill="#ffb3a0" opacity="0.5"/><circle cx="68.7" cy="48.2" r="2.4" fill="#ffb3a0" opacity="0.5"/><circle cx="54" cy="43.7" r="2.0250000000000004" fill="#3a2a18"/><circle cx="66" cy="43.7" r="2.0250000000000004" fill="#3a2a18"/><path d="M60 44.9 q-2 3.9000000000000004 2 4.5" stroke="#f2a700" stroke-width="1.6" fill="none" stroke-linecap="round"/><path d="M54 51.2 q6 6 12 0" stroke="#3a2a18" stroke-width="2" fill="none" stroke-linecap="round"/><g transform="translate(62 82)"><path d="M-24 -6 a24 10 0 0 0 48 0 l-4 22 a20 8 0 0 1 -40 0 Z" fill="#c2772e" stroke="#c08a1e" stroke-width="1.5"/><ellipse cx="0" cy="-6" rx="24" ry="10" fill="#f3ead4" stroke="#c08a1e" stroke-width="1.5"/><g stroke="#7a4322" stroke-width="2.4" stroke-linecap="round"><line x1="-14" y1="-26" x2="-4" y2="-8"/><line x1="14" y1="-26" x2="4" y2="-8"/></g><circle cx="-15" cy="-27" r="3.5" fill="#9c5a30"/><circle cx="15" cy="-27" r="3.5" fill="#9c5a30"/></g></svg>