<svg xmlns="http://www.w3.org/2000/svg" viewBox="0 0 124 118" width="124" height="118">
  <ellipse cx="62" cy="104" rx="40" ry="8" fill="#eadfca"/>
  <g transform="rotate(-1 60 60)">
    <path d="M60 14 C84 12 106 28 103 51 C114 68 99 95 71 99 C49 111 18 99 16 72 C4 57 15 26 39 20 C46 16 52 15 60 14 Z"
      fill="#fffdf6" stroke="#f2e7cf" stroke-width="2"/>
  </g><path d="M33 98 Q60 82 87 98 Q84 108 72 110 L48 110 Q36 108 33 98 Z" fill="#2c2a26"/>
  <path d="M60 84 L53 102 L60 108 L67 102 Z" fill="#f3eede"/><circle cx="45.5" cy="27" r="7" fill="#4a3320"/><circle cx="51.3" cy="27" r="7" fill="#4a3320"/><circle cx="57.1" cy="27" r="7" fill="#4a3320"/><circle cx="62.9" cy="27" r="7" fill="#4a3320"/><circle cx="68.7" cy="27" r="7" fill="#4a3320"/><circle cx="74.4" cy="27" r="7" fill="#4a3320"/><circle cx="43.4" cy="35" r="6.5" fill="#4a3320"/><circle cx="48.9" cy="35" r="6.5" fill="#4a3320"/><circle cx="54.5" cy="35" r="6.5" fill="#4a3320"/><circle cx="60.0" cy="35" r="6.5" fill="#4a3320"/><circle cx="65.5" cy="35" r="6.5" fill="#4a3320"/><circle cx="71.0" cy="35" r="6.5" fill="#4a3320"/><circle cx="76.6" cy="35" r="6.5" fill="#4a3320"/><circle cx="41" cy="49" r="6" fill="#4a3320"/><circle cx="79" cy="49" r="6" fill="#4a3320"/><circle cx="60" cy="53" r="17" fill="#ffc02e" stroke="#f2a700" stroke-width="2"/><circle cx="54.22" cy="45.86" r="3.4000000000000004" fill="#ffe08a" opacity="0.8"/><circle cx="50.14" cy="57.76" r="2.72" fill="#ffb3a0" opacity="0.5"/><circle cx="69.86" cy="57.76" r="2.72" fill="#ffb3a0" opacity="0.5"/><circle cx="53.2" cy="52.66" r="2.295" fill="#3a2a18"/><circle cx="66.8" cy="52.66" r="2.295" fill="#3a2a18"/><path d="M60 54.02 q-2 4.42 2 5.1" stroke="#f2a700" stroke-width="1.6" fill="none" stroke-linecap="round"/><path d="M54 61.16 q6 6 12 0" stroke="#3a2a18" stroke-width="2" fill="none" stroke-linecap="round"/><circle cx="46" cy="50" r="8" fill="#fff" fill-opacity="0.18" stroke="#3a2a18" stroke-width="2"/><circle cx="74" cy="50" r="8" fill="#fff" fill-opacity="0.18" stroke="#3a2a18" stroke-width="2"/><path d="M54 50 h12" stroke="#3a2a18" stroke-width="2"/><path d="M38 50 l-6 -2 M82 50 l6 -2" stroke="#3a2a18" stroke-width="2" stroke-linecap="round"/></svg>