<svg xmlns="http://www.w3.org/2000/svg" viewBox="0 0 124 118" width="124" height="118">
  <ellipse cx="62" cy="104" rx="40" ry="8" fill="#eadfca"/>
  <g transform="rotate(-1 60 60)">
    <path d="M60 14 C84 12 106 28 103 51 C114 68 99 95 71 99 C49 111 18 99 16 72 C4 57 15 26 39 20 C46 16 52 15 60 14 Z"
      fill="#fffdf6" stroke="#f2e7cf" stroke-width="2"/>
  </g><path d="M33 100 Q60 84 87 100 Q84 110 72 112 L48 112 Q36 110 33 100 Z" fill="#2c2a26"/>
  <path d="M60 86 L53 104 L60 110 L67 104 Z" fill="#f3eede"/><path d="M42 43 C38 20 54 15 62 17 C77 15 81 28 78 45 C74 31 58 28 45 33 C42 35 40 39 42 43 Z" fill="#332a20"/><path d="M58 19 q8 4 12 16" stroke="#ffc02e" stroke-width="2.4" fill="none" stroke-linecap="round"/><path d="M57 21 q-8 4 -9 12" stroke="#332a20" stroke-width="3" fill="none" stroke-linecap="round"/><circle cx="60" cy="52" r="17" fill="#ffc02e" stroke="#f2a700" stroke-width="2"/><circle cx="54.22" cy="44.86" r="3.4000000000000004" fill="#ffe08a" opacity="0.8"/><circle cx="53.2" cy="51.66" r="2.295" fill="#3a2a18"/><circle cx="66.8" cy="51.66" r="2.295" fill="#3a2a18"/><path d="M60 53.02 q-2 4.42 2 5.1" stroke="#f2a700" stroke-width="1.6" fill="none" stroke-linecap="round"/><path d="M55 60.84 h10" stroke="#3a2a18" stroke-width="2" stroke-linecap="round"/><circle cx="46" cy="50" r="8.5" fill="#fff" fill-opacity="0.18" stroke="#3a2a18" stroke-width="2.4"/><circle cx="74" cy="50" r="8.5" fill="#fff" fill-opacity="0.18" stroke="#3a2a18" stroke-width="2.4"/><path d="M54.5 50 h11" stroke="#3a2a18" stroke-width="2.4"/><path d="M37.5 50 l-6 -2 M82.5 50 l6 -2" stroke="#3a2a18" stroke-width="2.4" stroke-linecap="round"/></svg>