<svg xmlns="http://www.w3.org/2000/svg" viewBox="0 0 124 118" width="124" height="118">
  <ellipse cx="62" cy="104" rx="40" ry="8" fill="#eadfca"/>
  <g transform="rotate(-1 60 60)">
    <path d="M60 14 C84 12 106 28 103 51 C114 68 99 95 71 99 C49 111 18 99 16 72 C4 57 15 26 39 20 C46 16 52 15 60 14 Z"
      fill="#fffdf6" stroke="#f2e7cf" stroke-width="2"/>
  </g><path d="M33 98 Q60 82 87 98 Q84 108 72 110 L48 110 Q36 108 33 98 Z" fill="#b0392a"/>
  <path d="M60 84 L53 102 L60 108 L67 102 Z" fill="#f3eede"/><path d="M40 50 Q37 19 60 20 Q83 19 80 50 Q75 29 60 28 Q45 29 40 50 Z" fill="#efe9dd"/><circle cx="45.5" cy="26" r="6" fill="#efe9dd"/><circle cx="52.8" cy="26" r="6" fill="#efe9dd"/><circle cx="60.0" cy="26" r="6" fill="#efe9dd"/><circle cx="67.2" cy="26" r="6" fill="#efe9dd"/><circle cx="74.4" cy="26" r="6" fill="#efe9dd"/><circle cx="42" cy="50" r="8" fill="#efe9dd"/><circle cx="44" cy="62" r="8.5" fill="#efe9dd"/><circle cx="46" cy="73" r="7.5" fill="#efe9dd"/><circle cx="78" cy="50" r="8" fill="#efe9dd"/><circle cx="76" cy="62" r="8.5" fill="#efe9dd"/><circle cx="74" cy="73" r="7.5" fill="#efe9dd"/><circle cx="60" cy="52" r="17" fill="#ffc02e" stroke="#f2a700" stroke-width="2"/><circle cx="54.22" cy="44.86" r="3.4000000000000004" fill="#ffe08a" opacity="0.8"/><circle cx="53.2" cy="51.66" r="2.295" fill="#3a2a18"/><circle cx="66.8" cy="51.66" r="2.295" fill="#3a2a18"/><path d="M49.2 45.66 q4 -2 8 0" stroke="#3a2a18" stroke-width="2" fill="none" stroke-linecap="round"/><path d="M62.8 45.66 q4 -2 8 0" stroke="#3a2a18" stroke-width="2" fill="none" stroke-linecap="round"/><path d="M60 53.02 q-2 4.42 2 5.1" stroke="#f2a700" stroke-width="1.6" fill="none" stroke-linecap="round"/><path d="M55 60.84 h10" stroke="#3a2a18" stroke-width="2" stroke-linecap="round"/><g transform="translate(27 82) scale(0.62) rotate(15)">
    <rect x="-2" y="-40" width="4" height="22" fill="#5b3318"/><circle cx="0" cy="-41" r="3.5" fill="#5b3318"/>
    <path d="M0 -20 C-9 -20 -12 -13 -10 -7 C-14 -5 -14 1 -10 4 C-14 8 -11 16 -3 19 C-1 20 1 20 3 19 C11 16 14 8 10 4 C14 1 14 -5 10 -7 C12 -13 9 -20 0 -20 Z" fill="#9c5a30" stroke="#6b3f1f" stroke-width="1.4"/>
    <path d="M-4 -1 q-1 4 0 7 M4 -1 q1 4 0 7" stroke="#5b3318" stroke-width="1" fill="none"/>
    <g stroke="#efe6cf" stroke-width="0.7"><line x1="-3" y1="-18" x2="-2" y2="16"/><line x1="-1" y1="-18" x2="-1" y2="16"/><line x1="1" y1="-18" x2="1" y2="16"/><line x1="3" y1="-18" x2="2" y2="16"/></g></g></svg>